<?xml version="1.0" encoding="utf-8"?>
<!-- Generator: Adobe Illustrator 19.1.1, SVG Export Plug-In . SVG Version: 6.00 Build 0)  -->
<svg version="1.1"  xmlns="http://www.w3.org/2000/svg" xmlns:xlink="http://www.w3.org/1999/xlink" x="0px" y="0px"
	 viewBox="0 0 48 48" enable-background="new 0 0 48 48" xml:space="preserve">
<path fill="#FFA000" d="M42,41H6V3h36V41z"/>
<path fill="#5D4037" d="M30,21v4c0,0.6-0.4,1-1,1c-0.6,0-1-0.4-1-1v-4c0-0.6,0.4-1,1-1C29.6,20,30,20.4,30,21z M19,20
	c-0.6,0-1,0.4-1,1v4c0,0.6,0.4,1,1,1c0.6,0,1-0.4,1-1v-4C20,20.4,19.6,20,19,20z"/>
<path fill="#EF6C00" d="M25,41V3h-2v38H6v2v2h4v-0.4c0-1.2,0.4-1.6,1.6-1.6h23.8c1.2,0,2.6,0.4,2.6,1.6V45h4v-2v-2H25z"/>
<rect x="33" y="5" fill="#6D4C41" width="7" height="36"/>
<path fill="#F57C00" d="M40,14h-7v-2h7V14z M40,19h-7v2h7V19z M40,26h-7v2h7V26z M40,33h-7v2h7V33z M35,3h-2v2h2V3z"/>
<rect x="33" y="5" fill="#4E342E" width="2" height="36"/>
<path fill="#E65100" d="M35,14h-2v-2h2V14z M35,19h-2v2h2V19z M35,26h-2v2h2V26z M35,33h-2v2h2V33z"/>
</svg>
